<?xml version="1.0" standalone="no"?><!DOCTYPE svg PUBLIC "-//W3C//DTD SVG 1.1//EN" "http://www.w3.org/Graphics/SVG/1.1/DTD/svg11.dtd"><svg t="1672284377345" class="icon" viewBox="0 0 1024 1024" version="1.1" xmlns="http://www.w3.org/2000/svg" p-id="4426" xmlns:xlink="http://www.w3.org/1999/xlink" width="512" height="512"><path d="M798.891056 681.428807 226.349191 681.428807c-87.513146 0-158.709675-71.133084-158.709675-158.568459 0-72.057129 49.121767-134.655839 117.113301-153.072281-0.092098-1.836835-0.13917-3.673669-0.13917-5.51255 0-60.683081 49.367361-110.053512 110.047372-110.053512 22.562878 0 44.146453 6.815219 62.253856 19.257599C397.432685 189.986005 482.564597 135.683239 577.119113 135.683239c130.36307 0 237.248426 102.388948 244.39008 230.942813 34.1948 5.018294 65.712631 20.985964 90.24128 46.022173 29.132504 29.736255 45.174875 69.01177 45.174875 110.590747 0 42.195008-16.635889 81.95864-46.842865 111.970164C880.08017 665.014976 840.591807 681.428807 798.891056 681.428807zM294.66102 294.240441c-38.614459 0-70.028936 31.41857-70.028936 70.035076 0 5.579065 0.670266 11.165294 1.995447 16.603143 1.338485 5.502317 0.283456 11.313673-2.90312 15.993253-3.188622 4.681626-8.211009 7.79043-13.820774 8.559956-58.289568 7.992021-102.244662 58.475809-102.244662 117.427456 0 65.3688 53.244668 118.551046 118.691239 118.551046l572.542888 0c31.060413 0 60.532655-12.284791 82.986039-34.591843 22.588461-22.442128 35.029818-52.125171 35.029818-83.58058 0-31.045063-11.983939-60.375066-33.743522-82.585927-21.714558-22.165836-50.750871-34.83232-81.761142-35.668361-11.000542-0.294712-19.698644-9.422603-19.465331-20.425192 0.013303-0.578168-0.010233-1.140986-0.023536-1.707898-0.021489-0.824785-0.040932-1.65264-0.040932-2.503007 0-112.843044-91.851964-204.647937-204.753337-204.647937-87.469144 0-165.301813 55.553247-193.680141 138.237411-2.358721 6.874571-8.258081 11.927657-15.410991 13.202697-7.157004 1.274016-14.439874-1.428535-19.028379-7.061836C335.623967 303.657928 315.818899 294.240441 294.66102 294.240441z" fill="#ffffff" p-id="4427"></path><path d="M554.319851 950.017008c-5.121648 0-10.241248-1.954515-14.149255-5.860475-7.813966-7.813966-7.813966-20.48352 0-28.297486l181.680852-181.678806c7.820106-7.81192 20.485567-7.807826 28.297486 0 7.813966 7.813966 7.813966 20.48352 0 28.297486L568.468083 944.156534C564.560076 948.062494 559.439452 950.017008 554.319851 950.017008z" fill="#ffffff" p-id="4428"></path><path d="M376.300388 950.017008c-5.121648 0-10.241248-1.954515-14.149255-5.860475-7.813966-7.813966-7.813966-20.48352 0-28.297486L557.979194 720.03201c7.816013-7.81192 20.481474-7.81192 28.297486 0 7.813966 7.813966 7.813966 20.48352 0 28.297486L390.449643 944.156534C386.541637 948.062494 381.422036 950.017008 376.300388 950.017008z" fill="#ffffff" p-id="4429"></path><path d="M212.429157 950.017008c-5.121648 0-10.241248-1.954515-14.149255-5.860475-7.813966-7.813966-7.813966-20.48352 0-28.297486l181.678806-181.678806c7.816013-7.81192 20.481474-7.81192 28.297486 0 7.813966 7.813966 7.813966 20.48352 0 28.297486L226.577389 944.156534C222.669382 948.062494 217.549781 950.017008 212.429157 950.017008z" fill="#ffffff" p-id="4430"></path></svg>