<?xml version="1.0" standalone="no"?><!DOCTYPE svg PUBLIC "-//W3C//DTD SVG 1.1//EN" "http://www.w3.org/Graphics/SVG/1.1/DTD/svg11.dtd"><svg t="1672284588085" class="icon" viewBox="0 0 1024 1024" version="1.1" xmlns="http://www.w3.org/2000/svg" p-id="8595" xmlns:xlink="http://www.w3.org/1999/xlink" width="512" height="512"><path d="M877.623211 591.042217c0 14.408151 11.775184 26.107611 26.310226 26.107611 14.509459 0 26.310226-11.698436 26.310226-26.107611 0-14.433734-11.799744-26.13217-26.310226-26.13217C889.398396 564.909024 877.623211 576.608483 877.623211 591.042217z" fill="#ffffff" p-id="8596"></path><path d="M400.297942 462.860836c14.535041 0 26.310226-11.698436 26.310226-26.107611 0-14.433734-11.775184-26.13217-26.310226-26.13217L183.310979 410.621055c-14.535041 0-26.310226 11.698436-26.310226 26.13217 0 14.408151 11.775184 26.107611 26.310226 26.107611L400.297942 462.860836z" fill="#ffffff" p-id="8597"></path><path d="M536.784476 309.331137c14.509459 0 26.310226-11.698436 26.310226-26.107611 0-14.433734-11.799744-26.13217-26.310226-26.13217-14.535041 0-26.310226 11.698436-26.310226 26.13217C510.475274 297.632701 522.249435 309.331137 536.784476 309.331137z" fill="#ffffff" p-id="8598"></path><path d="M90.706885 591.042217c0 14.408151 11.799744 26.107611 26.310226 26.107611l708.012256 0c14.509459 0 26.284643-11.698436 26.284643-26.107611 0-14.433734-11.775184-26.13217-26.284643-26.13217L117.01711 564.910047C102.506629 564.909024 90.706885 576.608483 90.706885 591.042217z" fill="#ffffff" p-id="8599"></path><path d="M914.821415 309.331137c14.535041 0 26.310226-11.698436 26.310226-26.107611 0-14.433734-11.775184-26.13217-26.310226-26.13217-14.535041 0-26.310226 11.698436-26.310226 26.13217C888.512213 297.632701 900.286374 309.331137 914.821415 309.331137z" fill="#ffffff" p-id="8600"></path><path d="M539.494191 436.753225c0 14.408151 11.775184 26.107611 26.310226 26.107611l348.510462 0c14.509459 0 26.284643-11.698436 26.284643-26.107611 0-14.433734-11.775184-26.13217-26.284643-26.13217L565.804417 410.621055C551.269375 410.621055 539.494191 422.319491 539.494191 436.753225z" fill="#ffffff" p-id="8601"></path><path d="M621.183701 309.331137l216.986963 0c14.509459 0 26.310226-11.698436 26.310226-26.107611 0-14.433734-11.799744-26.13217-26.310226-26.13217L621.183701 257.091356c-14.535041 0-26.310226 11.698436-26.310226 26.13217C594.874499 297.632701 606.64866 309.331137 621.183701 309.331137z" fill="#ffffff" p-id="8602"></path><path d="M106.660228 711.602014c-14.535041 0-26.310226 11.698436-26.310226 26.107611 0 14.433734 11.775184 26.13217 26.310226 26.13217 14.509459 0 26.284643-11.698436 26.284643-26.13217C132.944871 723.30045 121.169687 711.602014 106.660228 711.602014z" fill="#ffffff" p-id="8603"></path><path d="M531.821441 711.602014 183.310979 711.602014c-14.535041 0-26.310226 11.698436-26.310226 26.107611 0 14.433734 11.775184 26.13217 26.310226 26.13217l348.510462 0c14.509459 0 26.284643-11.698436 26.284643-26.13217C558.106084 723.30045 546.3309 711.602014 531.821441 711.602014z" fill="#ffffff" p-id="8604"></path><path d="M621.183701 711.602014c-14.535041 0-26.310226 11.698436-26.310226 26.107611 0 14.433734 11.775184 26.13217 26.310226 26.13217 14.509459 0 26.284643-11.698436 26.284643-26.13217C647.468344 723.30045 635.694183 711.602014 621.183701 711.602014z" fill="#ffffff" p-id="8605"></path><path d="M914.821415 711.602014 697.834452 711.602014c-14.535041 0-26.310226 11.698436-26.310226 26.107611 0 14.433734 11.775184 26.13217 26.310226 26.13217l216.986963 0c14.535041 0 26.310226-11.698436 26.310226-26.13217C941.131641 723.30045 929.356456 711.602014 914.821415 711.602014z" fill="#ffffff" p-id="8606"></path><path d="M107.166765 309.331137l348.510462 0c14.535041 0 26.310226-11.698436 26.310226-26.107611 0-14.433734-11.775184-26.13217-26.310226-26.13217L107.166765 257.091356c-14.535041 0-26.310226 11.698436-26.310226 26.13217C80.856539 297.632701 92.631724 309.331137 107.166765 309.331137z" fill="#ffffff" p-id="8607"></path><path d="M458.386942 436.753225c0 14.408151 11.775184 26.107611 26.310226 26.107611 14.509459 0 26.310226-11.698436 26.310226-26.107611 0-14.433734-11.799744-26.13217-26.310226-26.13217C470.162126 410.621055 458.386942 422.319491 458.386942 436.753225z" fill="#ffffff" p-id="8608"></path><path d="M106.660228 462.860836c14.509459 0 26.284643-11.698436 26.284643-26.107611 0-14.433734-11.775184-26.13217-26.284643-26.13217-14.535041 0-26.310226 11.698436-26.310226 26.13217C80.350003 451.161377 92.125187 462.860836 106.660228 462.860836z" fill="#ffffff" p-id="8609"></path></svg>